<?xml version="1.0" encoding="UTF-8"?>
<svg version="1.1" xmlns="http://www.w3.org/2000/svg" width="512" height="512">
<path d="M0 0 C1.02298439 -0.00503792 1.02298439 -0.00503792 2.06663513 -0.01017761 C4.31088099 -0.01964068 6.55505187 -0.02162837 8.79931641 -0.02270508 C10.36723867 -0.02592084 11.93516063 -0.02928516 13.50308228 -0.03279114 C16.78640437 -0.03877076 20.06970019 -0.04063223 23.35302734 -0.04003906 C27.54817765 -0.0399375 31.74315849 -0.05358909 35.93826866 -0.07081127 C39.176023 -0.0819613 42.41373676 -0.08395735 45.65150833 -0.08342934 C47.19757293 -0.08460495 48.74363872 -0.08900309 50.2896843 -0.0967617 C52.45756458 -0.10662268 54.62508189 -0.1036598 56.79296875 -0.09765625 C58.02365082 -0.09908127 59.25433289 -0.10050629 60.52230835 -0.10197449 C66.7067279 0.33444444 71.15705063 1.67960329 75.65087891 5.96948242 C76.50166016 6.77434082 77.35244141 7.57919922 78.22900391 8.40844727 C79.15197266 9.31159668 80.07494141 10.21474609 81.02587891 11.14526367 C81.52925781 11.63319397 82.03263672 12.12112427 82.55126953 12.62384033 C85.84543079 15.81734384 89.10759884 19.04120311 92.3515625 22.28564453 C94.04621651 23.97807458 95.74877742 25.66228987 97.45166016 27.34643555 C98.53938683 28.43123382 99.62664431 29.51650281 100.71337891 30.60229492 C101.21853027 31.10026077 101.72368164 31.59822662 102.24414062 32.11128235 C107.48503607 37.38662473 108.85636814 41.70152984 109.1394043 49.12133789 C109.13416748 50.13728027 109.12893066 51.15322266 109.12353516 52.19995117 C109.1203125 53.30854492 109.11708984 54.41713867 109.11376953 55.55932617 C109.10539062 56.70143555 109.09701172 57.84354492 109.08837891 59.02026367 C109.08386719 60.18557617 109.07935547 61.35088867 109.07470703 62.55151367 C109.06296672 65.41615012 109.0465446 68.28068 109.02587891 71.14526367 C109.81355652 71.14082245 110.60123413 71.13638123 111.41278076 71.13180542 C118.88483669 71.09150721 126.35683892 71.06116774 133.82897568 71.04163933 C137.66923459 71.03126166 141.5094027 71.01721437 145.34960938 70.99438477 C149.06492234 70.97243925 152.7801487 70.96064998 156.49552155 70.95550919 C157.90348928 70.95185195 159.31145301 70.94471205 160.71938324 70.93380356 C176.51292196 70.81645349 192.06296873 72.1847662 204.08837891 83.58276367 C213.44121906 94.16066097 216.18751287 105.81705153 216.15959167 119.69561768 C216.16185723 120.53096566 216.16412279 121.36631364 216.166457 122.2269752 C216.1727626 125.0125778 216.17196985 127.79813131 216.17114258 130.58374023 C216.17413623 132.58660444 216.17753924 134.58946806 216.18132019 136.59233093 C216.19014383 142.02430303 216.19249763 147.45625938 216.19313598 152.88823795 C216.19384746 156.28495764 216.19598366 159.68167334 216.19863319 163.07839203 C216.20788153 174.93711094 216.21196876 186.79581862 216.21118164 198.65454102 C216.21058113 209.69429223 216.22112897 220.73399454 216.2369253 231.77373338 C216.25001821 241.26356684 216.25536479 250.75338435 216.25472623 260.24322677 C216.25447174 265.90584391 216.25729596 271.56841758 216.26790428 277.2310257 C216.27761459 282.55965667 216.27764435 287.88820289 216.27038765 293.21683693 C216.26934542 295.16664314 216.2716831 297.1164547 216.27774811 299.06625175 C216.32633889 315.77681332 215.92239807 331.01695075 203.90087891 344.02026367 C192.30417721 354.74137547 178.75595977 356.46033137 163.57775879 356.39923096 C161.7683307 356.40391093 161.7683307 356.40391093 159.9223485 356.40868545 C156.60489264 356.41524084 153.28766612 356.41293815 149.97022462 356.40671301 C146.38052761 356.40216265 142.79084974 356.40918502 139.20115662 356.41467285 C132.1811163 356.42354106 125.16111888 356.42165634 118.14107692 356.41584757 C112.43300137 356.41132093 106.7249378 356.4107225 101.01686096 356.4128952 C100.20279574 356.41320167 99.38873051 356.41350813 98.54999664 356.41382389 C96.89596156 356.41446337 95.24192648 356.4151118 93.5878914 356.41576907 C78.09753863 356.42146483 62.60720957 356.41492632 47.11686069 356.40416834 C33.84091609 356.39523351 20.56500647 356.39678577 7.2890625 356.40600586 C-8.14789737 356.41672183 -23.58483649 356.42091558 -39.02179956 356.41478133 C-40.66956742 356.41414427 -42.31733528 356.41351553 -43.96510315 356.4128952 C-44.77572298 356.41258665 -45.58634281 356.4122781 -46.42152688 356.4119602 C-52.11919338 356.41023724 -57.81684666 356.41313974 -63.51451111 356.41785431 C-70.46313734 356.4234779 -77.41171842 356.4219157 -84.36033952 356.41129282 C-87.90196998 356.40605595 -91.44352529 356.4039453 -94.98515511 356.41059113 C-98.83214573 356.4177005 -102.67901474 356.40918094 -106.52600098 356.39923096 C-107.63428615 356.4036924 -108.74257133 356.40815384 -109.8844409 356.41275048 C-123.8779751 356.34275735 -136.27841771 353.79284347 -146.84912109 344.02026367 C-159.5804403 330.24918155 -159.27297628 313.82251214 -159.23291016 296.23681641 C-159.23562389 294.23173903 -159.23918697 292.22666265 -159.24353027 290.22158813 C-159.2526104 284.80229434 -159.24912828 279.38307712 -159.2427721 273.96378207 C-159.2376901 268.27899906 -159.24240959 262.59422237 -159.24554443 256.90943909 C-159.24917738 247.36604644 -159.2444023 237.82268481 -159.23486328 228.27929688 C-159.22397692 217.26102287 -159.22750836 206.24282288 -159.23851609 195.22455066 C-159.24760439 185.7465376 -159.24886679 176.26854676 -159.24363875 166.79053074 C-159.24052794 161.13751167 -159.24008531 155.48452735 -159.24671173 149.83151054 C-159.25250711 144.516775 -159.24844823 139.20213453 -159.23692322 133.88740921 C-159.23428848 131.94202011 -159.23502135 129.99662295 -159.23944855 128.05123711 C-159.27580391 110.44741056 -158.01351558 95.90582463 -145.41943359 82.48901367 C-133.33266401 71.15405272 -117.24223497 70.82862892 -101.58349609 70.94995117 C-100.14333291 70.95369204 -98.70316715 70.95653392 -97.26300049 70.95852661 C-93.51479782 70.96607874 -89.76675589 70.98565229 -86.01861572 71.00793457 C-82.17698336 71.02857697 -78.33532445 71.03756722 -74.49365234 71.04760742 C-66.9870695 71.06890826 -59.48061801 71.10293921 -51.97412109 71.14526367 C-51.98459473 70.42983398 -51.99506836 69.7144043 -52.00585938 68.97729492 C-52.04772666 65.69998767 -52.07354438 62.42273693 -52.09912109 59.14526367 C-52.11587891 58.01991211 -52.13263672 56.89456055 -52.14990234 55.73510742 C-52.24328905 39.7659806 -52.24328905 39.7659806 -47.16943359 34.47729492 C-46.54713867 33.81810059 -45.92484375 33.15890625 -45.28369141 32.47973633 C-44.5215332 31.70936035 -43.759375 30.93898438 -42.97412109 30.14526367 C-41.99806084 29.13970172 -41.02251244 28.13364278 -40.04736328 27.12719727 C-37.25724837 24.26237273 -34.44019773 21.42564273 -31.61230469 18.59814453 C-29.84068497 16.82431703 -28.07725112 15.0426051 -26.31396484 13.26049805 C-25.17773558 12.12133773 -24.04103343 10.98264886 -22.90380859 9.84448242 C-22.38285614 9.31634445 -21.86190369 8.78820648 -21.32516479 8.24406433 C-14.55704323 1.51779233 -9.37880696 0.02908664 0 0 Z M2.02587891 54.14526367 C2.02587891 59.75526367 2.02587891 65.36526367 2.02587891 71.14526367 C19.51587891 71.14526367 37.00587891 71.14526367 55.02587891 71.14526367 C55.02587891 65.53526367 55.02587891 59.92526367 55.02587891 54.14526367 C37.53587891 54.14526367 20.04587891 54.14526367 2.02587891 54.14526367 Z " fill="#3E4FB2" transform="translate(227.97412109375,82.854736328125)"/>
<path d="M0 0 C0.85062012 0.41942871 1.70124023 0.83885742 2.57763672 1.27099609 C3.34648193 1.64659668 4.11532715 2.02219727 4.9074707 2.40917969 C5.70483643 2.82506348 6.50220215 3.24094727 7.32373047 3.66943359 C8.2316333 4.1423584 9.13953613 4.6152832 10.07495117 5.10253906 C11.0452124 5.61187988 12.01547363 6.1212207 13.01513672 6.64599609 C14.03502686 7.1798291 15.05491699 7.71366211 16.10571289 8.26367188 C24.73683103 12.79712127 33.29900855 17.45075215 41.84716797 22.13818359 C48.07268988 25.54928013 54.32436686 28.91111268 60.57763672 32.27099609 C72.27071971 38.55619188 83.93218939 44.89802416 95.57763672 51.27099609 C92.00393875 55.22926524 87.79788053 57.96533621 83.39013672 60.89599609 C81.93553559 61.86318494 80.48356821 62.83435024 79.03466797 63.81005859 C78.39505127 64.23496582 77.75543457 64.65987305 77.09643555 65.09765625 C75.42576774 66.21273221 75.42576774 66.21273221 74.57763672 68.27099609 C75.81900391 68.63837891 75.81900391 68.63837891 77.08544922 69.01318359 C81.11052427 70.46293099 84.70991386 72.34330119 88.45263672 74.39599609 C89.14099609 74.76853516 89.82935547 75.14107422 90.53857422 75.52490234 C92.22058469 76.43599135 93.89944108 77.35289924 95.57763672 78.27099609 C82.76653602 88.6532264 69.03771512 97.86786466 55.4921875 107.25 C51.78812386 109.81845693 48.08954905 112.39465621 44.39501953 114.97680664 C42.70716647 116.15634564 41.01775573 117.33365941 39.32666016 118.50854492 C35.84804907 120.93370881 32.40162372 123.37044008 29.06591797 125.98974609 C28.10041016 126.74255859 27.13490234 127.49537109 26.14013672 128.27099609 C25.35767578 128.91037109 24.57521484 129.54974609 23.76904297 130.20849609 C21.57763672 131.27099609 21.57763672 131.27099609 19.23730469 130.48730469 C16.73077814 129.34103011 14.27518545 128.14709456 11.83154297 126.87255859 C10.92364014 126.39963379 10.0157373 125.92670898 9.08032227 125.43945312 C7.62493042 124.67544189 7.62493042 124.67544189 6.14013672 123.89599609 C5.12024658 123.36216309 4.10035645 122.82833008 3.04956055 122.27832031 C-5.58155759 117.74487092 -14.14373512 113.09124004 -22.69189453 108.40380859 C-28.91741644 104.99271205 -35.16909342 101.63087951 -41.42236328 98.27099609 C-53.11544627 91.98580031 -64.77691595 85.64396803 -76.42236328 79.27099609 C-72.82439007 75.29428886 -68.59029923 72.49490704 -64.17236328 69.52099609 C-63.42728516 69.01439453 -62.68220703 68.50779297 -61.91455078 67.98583984 C-60.08642017 66.74364853 -58.25567628 65.50552027 -56.42236328 64.27099609 C-58.56779975 61.93772387 -60.62584408 60.46618274 -63.43408203 59.00927734 C-64.57006836 58.41469727 -64.57006836 58.41469727 -65.72900391 57.80810547 C-66.5146875 57.40398437 -67.30037109 56.99986328 -68.10986328 56.58349609 C-68.90714844 56.16777344 -69.70443359 55.75205078 -70.52587891 55.32373047 C-72.48882785 54.30111635 -74.4543189 53.28375929 -76.42236328 52.27099609 C-73.06781631 48.62070821 -69.32437226 46.010729 -65.23486328 43.27099609 C-63.78760054 42.28887764 -62.34100714 41.30577223 -60.89501953 40.32177734 C-60.15268066 39.81727051 -59.4103418 39.31276367 -58.64550781 38.79296875 C-55.12827402 36.38505798 -51.64965998 33.92358147 -48.17236328 31.45849609 C-41.10007038 26.45069411 -34.01562457 21.46064983 -26.89770508 16.51782227 C-22.73407545 13.6207329 -18.61201545 10.68600357 -14.55126953 7.64599609 C-13.78105469 7.07751953 -13.01083984 6.50904297 -12.21728516 5.92333984 C-10.76335006 4.84719891 -9.3199336 3.7566516 -7.88916016 2.64990234 C-6.9175293 1.93640625 -6.9175293 1.93640625 -5.92626953 1.20849609 C-5.3675415 0.78439453 -4.80881348 0.36029297 -4.2331543 -0.07666016 C-2.42236328 -0.72900391 -2.42236328 -0.72900391 0 0 Z " fill="#FEFEFE" transform="translate(246.42236328125,216.72900390625)"/>
<path d="M0 0 C1.02298439 -0.00503792 1.02298439 -0.00503792 2.06663513 -0.01017761 C4.31088099 -0.01964068 6.55505187 -0.02162837 8.79931641 -0.02270508 C10.36723867 -0.02592084 11.93516063 -0.02928516 13.50308228 -0.03279114 C16.78640437 -0.03877076 20.06970019 -0.04063223 23.35302734 -0.04003906 C27.54817765 -0.0399375 31.74315849 -0.05358909 35.93826866 -0.07081127 C39.176023 -0.0819613 42.41373676 -0.08395735 45.65150833 -0.08342934 C47.19757293 -0.08460495 48.74363872 -0.08900309 50.2896843 -0.0967617 C52.45756458 -0.10662268 54.62508189 -0.1036598 56.79296875 -0.09765625 C58.02365082 -0.09908127 59.25433289 -0.10050629 60.52230835 -0.10197449 C66.7067279 0.33444444 71.15705063 1.67960329 75.65087891 5.96948242 C76.50166016 6.77434082 77.35244141 7.57919922 78.22900391 8.40844727 C79.15197266 9.31159668 80.07494141 10.21474609 81.02587891 11.14526367 C81.52925781 11.63319397 82.03263672 12.12112427 82.55126953 12.62384033 C85.84543079 15.81734384 89.10759884 19.04120311 92.3515625 22.28564453 C94.04621651 23.97807458 95.74877742 25.66228987 97.45166016 27.34643555 C98.53938683 28.43123382 99.62664431 29.51650281 100.71337891 30.60229492 C101.21853027 31.10026077 101.72368164 31.59822662 102.24414062 32.11128235 C107.48503607 37.38662473 108.85636814 41.70152984 109.1394043 49.12133789 C109.13416748 50.13728027 109.12893066 51.15322266 109.12353516 52.19995117 C109.1203125 53.30854492 109.11708984 54.41713867 109.11376953 55.55932617 C109.10539062 56.70143555 109.09701172 57.84354492 109.08837891 59.02026367 C109.08386719 60.18557617 109.07935547 61.35088867 109.07470703 62.55151367 C109.06296672 65.41615012 109.0465446 68.28068 109.02587891 71.14526367 C109.81355652 71.14082245 110.60123413 71.13638123 111.41278076 71.13180542 C118.88483669 71.09150721 126.35683892 71.06116774 133.82897568 71.04163933 C137.66923459 71.03126166 141.5094027 71.01721437 145.34960938 70.99438477 C149.06492234 70.97243925 152.7801487 70.96064998 156.49552155 70.95550919 C157.90348928 70.95185195 159.31145301 70.94471205 160.71938324 70.93380356 C176.51292196 70.81645349 192.06296873 72.1847662 204.08837891 83.58276367 C213.44121906 94.16066097 216.18751287 105.81705153 216.15959167 119.69561768 C216.16185723 120.53096566 216.16412279 121.36631364 216.166457 122.2269752 C216.1727626 125.0125778 216.17196985 127.79813131 216.17114258 130.58374023 C216.17413623 132.58660444 216.17753924 134.58946806 216.18132019 136.59233093 C216.19014383 142.02430303 216.19249763 147.45625938 216.19313598 152.88823795 C216.19384746 156.28495764 216.19598366 159.68167334 216.19863319 163.07839203 C216.20788153 174.93711094 216.21196876 186.79581862 216.21118164 198.65454102 C216.21058113 209.69429223 216.22112897 220.73399454 216.2369253 231.77373338 C216.25001821 241.26356684 216.25536479 250.75338435 216.25472623 260.24322677 C216.25447174 265.90584391 216.25729596 271.56841758 216.26790428 277.2310257 C216.27761459 282.55965667 216.27764435 287.88820289 216.27038765 293.21683693 C216.26934542 295.16664314 216.2716831 297.1164547 216.27774811 299.06625175 C216.32633889 315.77681332 215.92239807 331.01695075 203.90087891 344.02026367 C192.30417721 354.74137547 178.75595977 356.46033137 163.57775879 356.39923096 C161.7683307 356.40391093 161.7683307 356.40391093 159.9223485 356.40868545 C156.60489264 356.41524084 153.28766612 356.41293815 149.97022462 356.40671301 C146.38052761 356.40216265 142.79084974 356.40918502 139.20115662 356.41467285 C132.1811163 356.42354106 125.16111888 356.42165634 118.14107692 356.41584757 C112.43300137 356.41132093 106.7249378 356.4107225 101.01686096 356.4128952 C100.20279574 356.41320167 99.38873051 356.41350813 98.54999664 356.41382389 C96.89596156 356.41446337 95.24192648 356.4151118 93.5878914 356.41576907 C78.09753863 356.42146483 62.60720957 356.41492632 47.11686069 356.40416834 C33.84091609 356.39523351 20.56500647 356.39678577 7.2890625 356.40600586 C-8.14789737 356.41672183 -23.58483649 356.42091558 -39.02179956 356.41478133 C-40.66956742 356.41414427 -42.31733528 356.41351553 -43.96510315 356.4128952 C-44.77572298 356.41258665 -45.58634281 356.4122781 -46.42152688 356.4119602 C-52.11919338 356.41023724 -57.81684666 356.41313974 -63.51451111 356.41785431 C-70.46313734 356.4234779 -77.41171842 356.4219157 -84.36033952 356.41129282 C-87.90196998 356.40605595 -91.44352529 356.4039453 -94.98515511 356.41059113 C-98.83214573 356.4177005 -102.67901474 356.40918094 -106.52600098 356.39923096 C-107.63428615 356.4036924 -108.74257133 356.40815384 -109.8844409 356.41275048 C-123.8779751 356.34275735 -136.27841771 353.79284347 -146.84912109 344.02026367 C-159.5804403 330.24918155 -159.27297628 313.82251214 -159.23291016 296.23681641 C-159.23562389 294.23173903 -159.23918697 292.22666265 -159.24353027 290.22158813 C-159.2526104 284.80229434 -159.24912828 279.38307712 -159.2427721 273.96378207 C-159.2376901 268.27899906 -159.24240959 262.59422237 -159.24554443 256.90943909 C-159.24917738 247.36604644 -159.2444023 237.82268481 -159.23486328 228.27929688 C-159.22397692 217.26102287 -159.22750836 206.24282288 -159.23851609 195.22455066 C-159.24760439 185.7465376 -159.24886679 176.26854676 -159.24363875 166.79053074 C-159.24052794 161.13751167 -159.24008531 155.48452735 -159.24671173 149.83151054 C-159.25250711 144.516775 -159.24844823 139.20213453 -159.23692322 133.88740921 C-159.23428848 131.94202011 -159.23502135 129.99662295 -159.23944855 128.05123711 C-159.27580391 110.44741056 -158.01351558 95.90582463 -145.41943359 82.48901367 C-133.33266401 71.15405272 -117.24223497 70.82862892 -101.58349609 70.94995117 C-100.14333291 70.95369204 -98.70316715 70.95653392 -97.26300049 70.95852661 C-93.51479782 70.96607874 -89.76675589 70.98565229 -86.01861572 71.00793457 C-82.17698336 71.02857697 -78.33532445 71.03756722 -74.49365234 71.04760742 C-66.9870695 71.06890826 -59.48061801 71.10293921 -51.97412109 71.14526367 C-51.98459473 70.42983398 -51.99506836 69.7144043 -52.00585938 68.97729492 C-52.04772666 65.69998767 -52.07354438 62.42273693 -52.09912109 59.14526367 C-52.11587891 58.01991211 -52.13263672 56.89456055 -52.14990234 55.73510742 C-52.24328905 39.7659806 -52.24328905 39.7659806 -47.16943359 34.47729492 C-46.54713867 33.81810059 -45.92484375 33.15890625 -45.28369141 32.47973633 C-44.5215332 31.70936035 -43.759375 30.93898438 -42.97412109 30.14526367 C-41.99806084 29.13970172 -41.02251244 28.13364278 -40.04736328 27.12719727 C-37.25724837 24.26237273 -34.44019773 21.42564273 -31.61230469 18.59814453 C-29.84068497 16.82431703 -28.07725112 15.0426051 -26.31396484 13.26049805 C-25.17773558 12.12133773 -24.04103343 10.98264886 -22.90380859 9.84448242 C-22.38285614 9.31634445 -21.86190369 8.78820648 -21.32516479 8.24406433 C-14.55704323 1.51779233 -9.37880696 0.02908664 0 0 Z M-38.8762207 34.00244141 C-40.97412109 37.14526367 -40.97412109 37.14526367 -42.97412109 38.14526367 C-42.97412109 50.35526367 -42.97412109 62.56526367 -42.97412109 75.14526367 C-51.35431641 75.0756543 -51.35431641 75.0756543 -59.90380859 75.00463867 C-63.45851486 74.98418301 -67.01314781 74.96492606 -70.56787109 74.94995117 C-76.20116382 74.92610688 -81.83419468 74.89800182 -87.46728516 74.84350586 C-92.01254254 74.79981269 -96.55751881 74.77607731 -101.10297012 74.7657547 C-102.83080592 74.75840522 -104.5586276 74.74405403 -106.28634262 74.72234344 C-119.41350831 74.56405574 -129.99080484 75.85045199 -139.97412109 85.14526367 C-150.59670635 96.55470709 -150.55678369 108.74869827 -150.49169922 123.4909668 C-150.49712519 125.55501295 -150.50425052 127.61905522 -150.51293945 129.68309021 C-150.53111903 135.26779938 -150.52412736 140.85221177 -150.51142311 146.43692589 C-150.50126765 152.29255321 -150.51069585 158.14815581 -150.51696777 164.00378418 C-150.52423675 173.83565819 -150.51467609 183.66741186 -150.49560547 193.49926758 C-150.47383826 204.85216749 -150.48089015 216.20478002 -150.50291109 227.55767298 C-150.52108638 237.32018311 -150.52361298 247.08260694 -150.51315641 256.84512854 C-150.50693322 262.66922558 -150.50605358 268.49318772 -150.51930237 274.317276 C-150.53089117 279.79379229 -150.52277958 285.2699395 -150.49972534 290.74641609 C-150.49445446 292.75146434 -150.49592413 294.75654387 -150.504776 296.76157951 C-150.55994689 310.53212408 -149.81037812 321.58039501 -139.97412109 332.14526367 C-131.01511669 340.4864057 -121.39541884 342.74692544 -109.42520142 342.65992737 C-107.58136134 342.67034566 -107.58136134 342.67034566 -105.70027196 342.68097442 C-102.31385018 342.69603006 -98.92831413 342.69333421 -95.54193354 342.68282139 C-91.87991253 342.67579895 -88.21797927 342.69185035 -84.5559845 342.70481873 C-77.39172715 342.72641387 -70.22762892 342.72634329 -63.06334974 342.71819318 C-57.23749321 342.71188209 -51.41168293 342.71304037 -45.58582687 342.71946526 C-44.33998063 342.72081774 -44.33998063 342.72081774 -43.06896579 342.72219754 C-41.38143289 342.72404883 -39.6939 342.72591139 -38.00636713 342.7277851 C-22.19644779 342.74434821 -6.38661779 342.73565735 9.42329617 342.71879952 C23.87055181 342.70410676 38.3175994 342.7187276 52.76482825 342.74756969 C67.61810845 342.77700036 82.47129275 342.7879251 97.32460082 342.77838749 C99.00638491 342.77736499 100.68816903 342.77637038 102.36995316 342.77540398 C103.19731192 342.77492759 104.02467069 342.7744512 104.87710094 342.77396037 C110.69103715 342.77180093 116.50488208 342.78157533 122.31879807 342.796175 C129.41132431 342.81373778 136.5035855 342.8135248 143.59610151 342.79082335 C147.21089557 342.77971621 150.82522335 342.7764374 154.43999672 342.79512405 C158.36790288 342.81516722 162.29508816 342.79606496 166.22299194 342.77345276 C167.35239209 342.78528849 168.48179223 342.79712422 169.64541662 342.8093186 C180.64950494 342.68111596 190.0430573 339.12247124 198.04931641 331.46557617 C204.81975265 323.51767275 207.1753947 315.92780025 207.17304993 305.72116089 C207.17856496 304.4341735 207.17856496 304.4341735 207.18419141 303.12118638 C207.19522016 300.2410225 207.19907073 297.36089472 207.20288086 294.48071289 C207.20914615 292.4175556 207.21579301 290.35439944 207.22279358 288.29124451 C207.2438297 281.51082138 207.25419601 274.73039804 207.26416016 267.94995117 C207.26820797 265.61487949 207.2723249 263.27980792 207.27651024 260.94473648 C207.29556145 249.97341532 207.30979226 239.00210089 207.31812221 228.03076637 C207.32789272 215.37141404 207.35420783 202.71223666 207.3946231 190.05294597 C207.42479743 180.26510275 207.43959237 170.47730964 207.44290322 160.68942082 C207.44525232 154.84508257 207.45419477 149.00093122 207.4793644 143.15664291 C207.50267277 137.65562812 207.50686707 132.15492294 207.49660301 126.65387154 C207.49610821 124.63913632 207.50241223 122.62438572 207.51615906 120.60969734 C207.60500192 106.81289756 206.89920744 95.72069557 197.02587891 85.14526367 C186.09185561 74.87140782 175.07623264 74.71878664 160.86572266 74.85229492 C159.10738997 74.85789836 157.34905257 74.86216492 155.5907135 74.86515808 C150.98917441 74.87654802 146.38792471 74.90596404 141.78649902 74.93927002 C137.08052483 74.97009784 132.37450335 74.98369045 127.66845703 74.9987793 C118.454138 75.03083999 109.24003263 75.0819646 100.02587891 75.14526367 C100.07824707 74.07155518 100.13061523 72.99784668 100.18457031 71.89160156 C100.36684178 67.87244454 100.48080639 63.85364368 100.57519531 59.83154297 C100.62520432 58.0978435 100.69324292 56.36455989 100.78027344 54.63232422 C101.55636561 44.53708916 101.55636561 44.53708916 98.13769531 35.39682007 C95.68208797 33.20123991 95.68208797 33.20123991 92.89746094 31.28387451 C89.65429775 28.86852859 87.33040513 26.06796734 84.84619141 22.92504883 C74.97228017 11.01058021 65.98549911 2.24515978 50.04389763 0.70473671 C43.8269582 0.26331699 37.65860872 0.24841649 31.43178177 0.45154953 C28.99915411 0.52102695 26.57023623 0.54046046 24.13668823 0.54934692 C-4.79444731 0.78013642 -22.67425737 8.99515027 -38.8762207 34.00244141 Z " fill="#000000" transform="translate(227.97412109375,82.854736328125)"/>
<path d="M0 0 C10.62871071 5.25895168 21.16331392 10.66661563 31.625 16.25 C33.01666952 16.99107339 34.40835265 17.73212121 35.80004883 18.47314453 C44.1151129 22.90502137 52.41341058 27.36701849 60.6875 31.875 C61.57066895 32.35614258 62.45383789 32.83728516 63.36376953 33.33300781 C64.58169189 33.99961426 64.58169189 33.99961426 65.82421875 34.6796875 C66.5620459 35.08026367 67.29987305 35.48083984 68.06005859 35.89355469 C70 37 70 37 72.76953125 38.9453125 C74.97031095 40.26312509 74.97031095 40.26312509 77.4140625 39.4765625 C80.58549395 37.66568472 83.47750072 35.58568168 86.375 33.375 C93.99197986 27.67199554 101.78385716 22.23979033 109.61474609 16.83544922 C116.1475952 12.31847667 122.59645097 7.69847581 129 3 C129.33 3.66 129.66 4.32 130 5 C131.99755809 5.67394817 133.99818351 6.33880776 136 7 C138.67723032 8.28005505 141.2735686 9.69824596 143.875 11.125 C144.56335938 11.49753906 145.25171875 11.87007813 145.9609375 12.25390625 C147.64294798 13.16499526 149.32180436 14.08190315 151 15 C147.21878615 19.21276543 142.63276597 22.18731699 138 25.375 C136.18742532 26.63270488 134.37492744 27.89052044 132.5625 29.1484375 C131.63695312 29.7887793 130.71140625 30.42912109 129.7578125 31.08886719 C125.49417878 34.04351704 121.24748795 37.02221026 117 40 C115.34644616 41.15768349 113.69279986 42.31523493 112.0390625 43.47265625 C111.21567383 44.04902832 110.39228516 44.62540039 109.54394531 45.21923828 C91.6484375 57.74609375 91.6484375 57.74609375 89.35449219 59.32763672 C87.67346926 60.52164408 86.02603823 61.76352889 84.40332031 63.03564453 C83.54061523 63.6954834 82.67791016 64.35532227 81.7890625 65.03515625 C81.0151416 65.64883057 80.2412207 66.26250488 79.44384766 66.89477539 C77 68 77 68 74.03564453 67.3581543 C71.16818493 66.07524632 68.39798799 64.73902486 65.640625 63.234375 C64.11066895 62.40462158 64.11066895 62.40462158 62.54980469 61.55810547 C61.46086914 60.96143066 60.37193359 60.36475586 59.25 59.75 C57.50434156 58.80137958 55.75867892 57.85276677 54.01275635 56.90463257 C52.20435642 55.92186537 50.39705855 54.93709296 48.58984375 53.95214844 C44.06959571 51.49102283 39.53523672 49.05628438 35.00097656 46.62109375 C16.25663856 36.55354303 -2.42014276 26.3680191 -21 16 C-17.41843527 12.04241798 -13.21334842 9.26595827 -8.8125 6.3125 C-7.3601112 5.33026331 -5.90825909 4.34723242 -4.45703125 3.36328125 C-3.81741455 2.93313721 -3.17779785 2.50299316 -2.51879883 2.05981445 C-1.02496738 1.08338143 -1.02496738 1.08338143 0 0 Z " fill="#EB3C78" transform="translate(191,307)"/>
<path d="M0 0 C13.49768324 6.71162014 26.83956927 13.76398696 40.0625 21 C40.93946533 21.47832275 41.81643066 21.95664551 42.7199707 22.44946289 C47.67600462 25.15877344 52.61007177 27.90364281 57.53125 30.67578125 C59.70830767 31.88806693 61.88539044 33.10030751 64.0625 34.3125 C65.08029541 34.89451172 66.09809082 35.47652344 67.14672852 36.07617188 C68.09990967 36.60404297 69.05309082 37.13191406 70.03515625 37.67578125 C71.29404663 38.3860144 71.29404663 38.3860144 72.57836914 39.1105957 C75.56209033 40.20644168 77.00178354 39.98350858 80 39 C82.06529554 37.92659915 82.06529554 37.92659915 84.01171875 36.515625 C84.76050293 35.9990332 85.50928711 35.48244141 86.28076172 34.95019531 C87.47209717 34.10859863 87.47209717 34.10859863 88.6875 33.25 C89.52039551 32.67088867 90.35329102 32.09177734 91.21142578 31.49511719 C97.7296168 26.9447979 104.18023104 22.29994946 110.60961914 17.62524414 C117.00217979 12.97799026 123.47601395 8.46074664 130 4 C130.33 4.66 130.66 5.32 131 6 C132.99755809 6.67394817 134.99818351 7.33880776 137 8 C139.67723032 9.28005505 142.2735686 10.69824596 144.875 12.125 C145.56335938 12.49753906 146.25171875 12.87007813 146.9609375 13.25390625 C148.64294798 14.16499526 150.32180436 15.08190315 152 16 C139.18889931 26.3822303 125.4600784 35.59686857 111.91455078 44.97900391 C108.21048714 47.54746084 104.51191233 50.12366012 100.81738281 52.70581055 C99.12952975 53.88534955 97.44011901 55.06266331 95.74902344 56.23754883 C92.27041235 58.66271272 88.82398701 61.09944399 85.48828125 63.71875 C84.52277344 64.4715625 83.55726563 65.224375 82.5625 66 C81.78003906 66.639375 80.99757813 67.27875 80.19140625 67.9375 C78 69 78 69 75.65966797 68.21630859 C73.15314142 67.07003402 70.69754873 65.87609847 68.25390625 64.6015625 C67.34600342 64.1286377 66.43810059 63.65571289 65.50268555 63.16845703 C64.53242432 62.65911621 63.56216309 62.14977539 62.5625 61.625 C61.03266479 60.82425049 61.03266479 60.82425049 59.47192383 60.00732422 C50.84080569 55.47387483 42.27862816 50.82024395 33.73046875 46.1328125 C27.50494684 42.72171596 21.25326986 39.35988341 15 36 C3.30691701 29.71480421 -8.35455267 23.37297194 -20 17 C-15.83960091 12.37976732 -10.64717595 9.27971776 -5.4921875 5.890625 C-4.78835937 5.41882813 -4.08453125 4.94703125 -3.359375 4.4609375 C-2.71452148 4.03603027 -2.06966797 3.61112305 -1.40527344 3.17333984 C-0.9415332 2.7861377 -0.47779297 2.39893555 0 2 C0 1.34 0 0.68 0 0 Z " fill="#E6AEC1" transform="translate(190,279)"/>
<path d="M0 0 C23.43 0 46.86 0 71 0 C71 11.55 71 23.1 71 35 C47.57 35 24.14 35 0 35 C0 23.45 0 11.9 0 0 Z M9 14 C9 19.61 9 25.22 9 31 C26.49 31 43.98 31 62 31 C62 25.39 62 19.78 62 14 C44.51 14 27.02 14 9 14 Z " fill="#000000" transform="translate(221,123)"/>
<path d="M0 0 C13.11736679 5.8557521 22.41863845 17.05638161 29.99389648 28.94897461 C31.66041957 32.03923121 31.66041957 32.03923121 34 33 C34 33.99 34 34.98 34 36 C30.17751089 34.73767693 28.72992577 32.3484707 26.63282776 29.04794312 C18.61258386 16.64008967 8.10848365 4.84272626 -6.80023384 1.41971397 C-28.02110691 -2.75867482 -59.16647941 -5.06803557 -78.43310547 6.375 C-88.45824244 13.41424409 -96.18003756 22.79599251 -102.87036133 32.97070312 C-103.57314209 33.97037109 -104.27592285 34.97003906 -105 36 C-105.66 36 -106.32 36 -107 36 C-88.2348192 -4.61169324 -39.96392568 -12.81253251 0 0 Z " fill="#5766BD" transform="translate(293,87)"/>
<path d="M0 0 C1.80317327 0.00560313 3.60635115 0.00986984 5.40953064 0.01286316 C10.1294338 0.02425552 14.84905502 0.05367374 19.56884766 0.0869751 C24.39546903 0.1177976 29.22213646 0.13139441 34.04882812 0.14648438 C43.5001231 0.17854937 52.95120988 0.22967702 62.40234375 0.29296875 C62.40234375 0.95296875 62.40234375 1.61296875 62.40234375 2.29296875 C61.49969284 2.3010556 60.59704193 2.30914246 59.66703796 2.31747437 C51.12026703 2.39572704 42.57364709 2.48310789 34.02707195 2.58049583 C29.63420904 2.63023701 25.24136763 2.67656719 20.84838867 2.71484375 C16.60129479 2.75197901 12.35439117 2.79841158 8.10746193 2.85103226 C6.49496646 2.8694274 4.88243044 2.88458894 3.26987267 2.89631271 C-10.00103901 2.99616358 -22.46483264 3.1834359 -33.59765625 11.29296875 C-35.41755908 13.2563494 -36.90843944 15.2262407 -38.3828125 17.45703125 C-39.86301254 19.69398951 -41.63139856 21.47796165 -43.59765625 23.29296875 C-43.20399884 16.9944502 -38.9110562 12.47615857 -34.515625 8.328125 C-23.90171484 -0.46413333 -13.09770533 -0.11993162 0 0 Z " fill="#5867BC" transform="translate(124.59765625,157.70703125)"/>
<path d="M0 0 C10.3883039 -0.09296446 20.77650771 -0.16389871 31.16514397 -0.20724869 C35.98980349 -0.22806184 40.81417695 -0.25626401 45.63867188 -0.30175781 C50.30063792 -0.34544043 54.96233 -0.3691842 59.62448502 -0.37950897 C61.39697706 -0.38686031 63.16945529 -0.4012152 64.94182968 -0.42292023 C78.390124 -0.58095853 88.59623563 0.62702335 99 10 C101.5 12.875 101.5 12.875 103 15 C102.67 15.66 102.34 16.32 102 17 C101.30777344 16.34644531 101.30777344 16.34644531 100.6015625 15.6796875 C91.38236815 7.26216222 83.73859112 2.89496201 71.18041992 2.79467773 C70.40915771 2.78477814 69.63789551 2.77487854 68.84326172 2.76467896 C66.3056948 2.73320802 63.76810918 2.70836378 61.23046875 2.68359375 C59.46641059 2.66301177 57.70235722 2.64201497 55.93830872 2.62062073 C51.30400484 2.56552855 46.66965741 2.51606277 42.03527832 2.46777344 C37.3027765 2.41746436 32.57033763 2.36182747 27.83789062 2.30664062 C18.55864758 2.19921635 9.27934978 2.09773667 0 2 C0 1.34 0 0.68 0 0 Z " fill="#5C6ABE" transform="translate(326,158)"/>
<path d="M0 0 C0.99 0.33 1.98 0.66 3 1 C0.96826936 2.42221144 -1.06346498 3.84441759 -3.09521484 5.26660156 C-4.88726801 6.52107174 -6.67925871 7.77563117 -8.47119141 9.03027344 C-13.07571866 12.25400414 -17.68110778 15.47648249 -22.2890625 18.6953125 C-23.5579834 19.58246948 -23.5579834 19.58246948 -24.85253906 20.48754883 C-26.52792959 21.65814931 -28.20435542 22.8272695 -29.88183594 23.99487305 C-33.70194734 26.66005821 -37.49516563 29.34835407 -41.2265625 32.13671875 C-41.86932129 32.61270508 -42.51208008 33.08869141 -43.17431641 33.57910156 C-44.3540492 34.45688082 -45.52624419 35.34492467 -46.68896484 36.24511719 C-50.47809957 39.0540785 -50.47809957 39.0540785 -53.375 38.75390625 C-53.91125 38.50511719 -54.4475 38.25632812 -55 38 C-54.40316406 37.63390625 -53.80632812 37.2678125 -53.19140625 36.890625 C-44.86157072 31.69221353 -36.88514123 26.03831384 -28.89013672 20.34375 C-25.85675768 18.1872377 -22.80478267 16.05790826 -19.74609375 13.9375 C-17.3866193 12.27277834 -15.05297895 10.58004043 -12.72265625 8.875 C-11.95630859 8.32005859 -11.18996094 7.76511719 -10.40039062 7.19335938 C-8.86047531 6.07798212 -7.32642586 4.95445411 -5.79882812 3.82226562 C-5.09306641 3.31373047 -4.38730469 2.80519531 -3.66015625 2.28125 C-3.02730713 1.81783203 -2.39445801 1.35441406 -1.74243164 0.87695312 C-1.1674292 0.58755859 -0.59242676 0.29816406 0 0 Z " fill="#E4E4E4" transform="translate(320,281)"/>
<path d="M0 0 C0.66 0.66 1.32 1.32 2 2 C-2.65610419 6.70666542 -7.31991471 11.40558952 -11.98925781 16.09912109 C-13.57797457 17.69791772 -15.16489469 19.29850169 -16.75 20.90087891 C-19.02398254 23.19902251 -21.30427312 25.49073622 -23.5859375 27.78125 C-24.29744965 28.50308472 -25.00896179 29.22491943 -25.74203491 29.96862793 C-26.40256866 30.62931274 -27.06310242 31.28999756 -27.74365234 31.97070312 C-28.61635269 32.85006531 -28.61635269 32.85006531 -29.50668335 33.74719238 C-31 35 -31 35 -33 35 C-31.67005617 32.04734888 -30.22220684 29.97649784 -27.92724609 27.70019531 C-27.30675385 27.07985413 -26.6862616 26.45951294 -26.04696655 25.82037354 C-25.37920197 25.16293152 -24.71143738 24.5054895 -24.0234375 23.828125 C-23.33819 23.1457074 -22.6529425 22.46328979 -21.94692993 21.76019287 C-19.76094155 19.58538402 -17.56809571 17.41763928 -15.375 15.25 C-13.89016745 13.7752001 -12.40578694 12.29994494 -10.921875 10.82421875 C-7.2864709 7.21084552 -3.64490176 3.60379147 0 0 Z " fill="#5161BB" transform="translate(219,88)"/>
<path d="M0 0 C5.47932789 1.54545146 10.11429181 4.15543212 15 7 C15 7.99 15 8.98 15 10 C12.5 11.6875 12.5 11.6875 10 13 C9.52949219 12.45730469 9.05898437 11.91460937 8.57421875 11.35546875 C7.95160156 10.64003906 7.32898438 9.92460937 6.6875 9.1875 C6.07261719 8.47980469 5.45773438 7.77210938 4.82421875 7.04296875 C3.06723259 5.01755954 3.06723259 5.01755954 1.26953125 3.36328125 C0 2 0 2 0 0 Z " fill="#38418C" transform="translate(175,299)"/>
<path d="M0 0 C5.47932789 1.54545146 10.11429181 4.15543212 15 7 C15 7.99 15 8.98 15 10 C13.35 10.66 11.7 11.32 10 12 C8.32737283 10.38113585 6.66204463 8.7547271 5 7.125 C4.071875 6.22007812 3.14375 5.31515625 2.1875 4.3828125 C0 2 0 2 0 0 Z " fill="#37438C" transform="translate(175,272)"/>
<path d="M0 0 C5.90130135 0.63930765 10.78465729 5.60235589 14.5 9.875 C14.995 10.57625 15.49 11.2775 16 12 C15.67 12.66 15.34 13.32 15 14 C14.52691406 13.55269531 14.05382812 13.10539063 13.56640625 12.64453125 C8.73275256 8.22545994 3.84733207 4.93720153 -2 2 C-1.34 1.34 -0.68 0.68 0 0 Z " fill="#5060B5" transform="translate(413,161)"/>
<path d="M0 0 C0.66 0.33 1.32 0.66 2 1 C0.31676559 2.44917519 -1.36911816 3.89470513 -3.0625 5.33203125 C-4.26878053 6.37050259 -5.45960476 7.427565 -6.625 8.51171875 C-9.07970999 10.74269216 -10.52502591 11.94837238 -13.875 12.3125 C-14.926875 12.1578125 -14.926875 12.1578125 -16 12 C-12.8980055 8.65707389 -9.56424638 6.23755199 -5.75 3.75 C-4.67234375 3.04359375 -3.5946875 2.3371875 -2.484375 1.609375 C-1.66453125 1.07828125 -0.8446875 0.5471875 0 0 Z " fill="#EF4E8B" transform="translate(186,311)"/>
<path d="M0 0 C0.66 0.33 1.32 0.66 2 1 C0.88200014 2.33920838 -0.24461897 3.67122556 -1.375 5 C-2.00148438 5.7425 -2.62796875 6.485 -3.2734375 7.25 C-4.12808594 8.11625 -4.12808594 8.11625 -5 9 C-5.66 9 -6.32 9 -7 9 C-6.34 7.68 -5.68 6.36 -5 5 C-4.34 5 -3.68 5 -3 5 C-2.690625 4.360625 -2.38125 3.72125 -2.0625 3.0625 C-1 1 -1 1 0 0 Z " fill="#334192" transform="translate(427,409)"/>
<path d="M0 0 C0.66 0.33 1.32 0.66 2 1 C0.37660195 2.70884005 -1.29319053 4.37446717 -3 6 C-3.66 6 -4.32 6 -5 6 C-3.63016497 2.83884224 -3.0109362 2.0072908 0 0 Z " fill="#CE9BAD" transform="translate(280,317)"/>
</svg>
